<?xml version="1.0" encoding="UTF-8"?><svg id="OBJECTS" xmlns="http://www.w3.org/2000/svg" viewBox="0 0 545.63 509.98"><ellipse cx="238.19" cy="463.01" rx="231.74" ry="46.97" style="fill:#e1e1e1;"/><g><path d="M53.31,445.71c0,8.1,36.32,14.68,81.12,14.68s81.12-6.57,81.12-14.68-36.32-14.68-81.12-14.68-81.12,6.57-81.12,14.68Z" style="fill:#2e4246;"/><polygon points="141.85 442.9 127.02 442.9 131.96 42.26 141.85 42.26 141.85 442.9" style="fill:#2e4246;"/><path d="M106.74,63.21H45.02s-10.73,83.18,30.86,83.18,30.86-83.18,30.86-83.18Z" style="fill:#e1e1e1;"/><path d="M75.88,146.39c-.99,0-1.93-.05-2.85-.14,22.69-16.14,24.13-63.75,23.75-83.04h9.96s10.74,83.18-30.86,83.18Z" style="fill:#b3bbbc;"/><path d="M99.43,103.53c-1.73,16.06-7.42,32.56-23.49,32.56s-22.03-17.34-23.61-33.77l47.09,1.21Z" style="fill:#f16954;"/><polygon points="54.67 92.11 97.08 92.11 99.36 80.58 52.4 80.58 54.67 92.11" style="fill:#fff;"/><path d="M67.81,67.85l16.14,.41c-.54-5.63-3.18-14.58-8.09-14.58s-7.46,8.66-8.05,14.16Zm5.66-6.64c0-1.37,1.11-2.47,2.47-2.47s2.47,1.11,2.47,2.47-1.11,2.47-2.47,2.47-2.47-1.11-2.47-2.47Z" style="fill:#e1e1e1;"/><polygon points="61.83 50.5 200.75 50.83 200.75 37.65 61.83 42.26 61.83 50.5" style="fill:#2e4246;"/><path d="M76.23,42.04c-.01-.98,1.5-.89,1.51,.08,.09,5.71-.23,11.41-.95,17.07-.12,.96-1.64,.89-1.51-.08,.72-5.66,1.04-11.36,.95-17.07Z" style="fill:#f4f4f4;"/><path d="M99.43,103.53c-1.73,16.05-7.42,32.56-23.49,32.56-5.84,0-10.3-2.17-13.71-5.72,24.05,2.8,37.2-26.84,37.2-26.84Z" style="fill:#c0463b;"/><g style="opacity:.36;"><path d="M71.16,106.69c-2.38-.32-2.88,3.38-.49,3.7,2.38,.32,2.88-3.38,.49-3.7Z" style="fill:#f99;"/><path d="M81.54,110.43c-2.38-.32-2.88,3.38-.49,3.7,2.38,.32,2.88-3.38,.49-3.7Z" style="fill:#f99;"/><path d="M59.7,110.43c-2.38-.32-2.88,3.38-.49,3.7,2.38,.32,2.88-3.38,.49-3.7Z" style="fill:#f99;"/><path d="M94.29,108.56c-2.38-.32-2.88,3.38-.49,3.7,2.38,.32,2.88-3.38,.49-3.7Z" style="fill:#f99;"/><path d="M67.54,124.36c-2.38-.32-2.88,3.38-.49,3.7,2.38,.32,2.88-3.38,.49-3.7Z" style="fill:#f99;"/><path d="M79.73,128.1c-2.38-.32-2.88,3.38-.49,3.7,2.38,.32,2.88-3.38,.49-3.7Z" style="fill:#f99;"/></g></g><path d="M498.03,18.31c-.12-1.33-1.76-2.4-3.83-2.49-3.86-.16-7.66-.26-11.43-.32-.02-4.01-.1-7.87-.24-11.52-.08-2.06-1.13-3.74-2.46-3.86-2.06-.19-4.22-.14-6.45,.06-1.33,.12-2.4,1.76-2.49,3.83-.16,3.87-.26,7.69-.32,11.48-3.85,.05-7.67,.14-11.42,.32-2.04,.09-3.69,1.13-3.84,2.44-.26,2.28-.32,4.45-.1,6.48,.15,1.34,1.86,2.39,3.95,2.44,3.88,.1,7.67,.18,11.39,.24,.05,3.85,.14,7.67,.32,11.42,.1,2.04,1.13,3.69,2.44,3.84,2.28,.26,4.45,.32,6.48,.1,1.34-.15,2.39-1.86,2.44-3.95,.1-3.86,.18-7.64,.24-11.35,4.01-.02,7.87-.1,11.52-.24,2.06-.08,3.74-1.13,3.86-2.46,.19-2.06,.14-4.22-.06-6.45Z" style="fill:#f16954;"/><path d="M37.33,466.56c-.1-1.16-1.54-2.1-3.34-2.18-3.37-.14-6.69-.23-9.99-.28-.02-3.5-.09-6.88-.21-10.07-.07-1.8-.99-3.27-2.15-3.37-1.8-.16-3.69-.12-5.64,.06-1.16,.1-2.1,1.54-2.18,3.34-.14,3.39-.23,6.72-.28,10.03-3.37,.05-6.7,.13-9.98,.28-1.78,.08-3.23,.98-3.36,2.13-.23,1.99-.28,3.89-.09,5.66,.13,1.17,1.63,2.09,3.45,2.14,3.39,.09,6.71,.16,9.96,.21,.05,3.36,.13,6.7,.28,9.98,.08,1.78,.98,3.23,2.13,3.36,1.99,.23,3.89,.28,5.66,.09,1.17-.13,2.09-1.63,2.14-3.45,.09-3.37,.16-6.68,.21-9.92,3.5-.02,6.88-.09,10.07-.21,1.8-.07,3.27-.99,3.37-2.15,.16-1.8,.12-3.69-.06-5.64Z" style="fill:#a60019;"/><path d="M283.69,106.66c-1.82,0-3.76-.12-5.85-.36-2.83-.32-5.01-3.42-5.19-7.36-.21-4.49-.35-9.29-.44-15.01-4.89-.08-9.87-.19-14.94-.32-4.05-.11-7.22-2.3-7.55-5.21-.33-2.94-.28-6.18,.14-9.9,.32-2.83,3.42-5.01,7.36-5.19,4.47-.21,9.28-.35,15.02-.44,.09-4.98,.22-10,.44-15.09,.17-4,2.41-7.09,5.31-7.35,3.65-.33,6.84-.36,9.78-.09,2.9,.26,5.11,3.37,5.27,7.4,.17,4.66,.29,9.63,.33,15.16,4.96,.09,9.95,.22,15.01,.44,3.99,.17,7.08,2.4,7.34,5.31h0c.32,3.64,.36,6.84,.09,9.78-.26,2.9-3.38,5.12-7.4,5.27-4.63,.18-9.6,.29-15.15,.34-.07,4.86-.19,9.81-.32,14.86-.11,4.05-2.3,7.23-5.21,7.55-1.29,.14-2.63,.22-4.05,.22Zm-.04-62.84c-1.66,0-3.43,.09-5.34,.26-.75,.07-1.88,1.48-1.98,3.86-.24,5.66-.38,11.23-.47,16.76l-.03,1.77-1.77,.02c-6.5,.09-11.8,.24-16.67,.46-2.38,.11-3.82,1.23-3.9,1.96-.4,3.44-.44,6.41-.14,9.08,.09,.77,1.66,1.89,4.02,1.96,5.67,.15,11.22,.27,16.67,.35l1.78,.02,.02,1.78c.09,6.47,.23,11.76,.46,16.66,.11,2.38,1.23,3.82,1.96,3.9,3.44,.39,6.4,.44,9.08,.14,.77-.09,1.9-1.66,1.96-4.02,.15-5.65,.27-11.18,.35-16.6l.02-1.79h1.79c6.24-.05,11.74-.16,16.82-.36,2.32-.09,3.84-1.2,3.9-1.95,.24-2.71,.21-5.7-.09-9.12-.07-.75-1.48-1.88-3.86-1.98-5.64-.24-11.19-.37-16.71-.47l-1.78-.03v-1.79c-.05-6.2-.16-11.71-.36-16.82-.09-2.32-1.19-3.83-1.94-3.9-1.2-.11-2.46-.16-3.79-.16Z" style="fill:#f16954;"/><g><path d="M193.67,475.51c0,9,39.08,16.3,87.3,16.3s87.3-7.3,87.3-16.3-39.08-16.3-87.3-16.3-87.3,7.3-87.3,16.3Z" style="fill:#363636;"/><polygon points="267.88 471.52 294.07 471.52 294.07 375.12 273.83 375.12 267.88 471.52" style="fill:#363636;"/><path d="M153.34,252.7c0,14.08,20.96,25.5,91.37,25.5s82.87-11.42,82.87-25.5-12.46-25.5-82.87-25.5-91.37,11.42-91.37,25.5Z" style="fill:#363636;"/><path d="M457.02,131.82c45.64,.06,111.97,9.81,80.38,67.59-23.58,43.12-124,162.8-166.12,179.28-42.12,16.47-227.63,22-225.86-20.66,1.9-45.7,129.41-49.51,129.41-49.51,0,0,96.16-176.8,182.2-176.69Z" style="fill:#415c65;"/><path d="M492.4,134.14c27.65,7.01-21.24,71.28-26.67,79.93l-33.47,53.43c-44.78,78.66-77.23,86.56-83.98,90.2-7.42,4-15.41,6.38-23.73,7.6-10.02,1.46-20.25,1.88-30.35,2.58-10.39,.71-20.81,1.32-31.21,1.59-10.52,.27-21.05,.2-31.56-.46-4.94-.3-9.87-.79-14.8-1.29-4.99-.52-10.08-.82-14.94,.68-8.4,2.61-13.98,8.46-17.86,15.65-23.35-5.16-38.94-13.53-38.43-26.04,1.9-45.69,129.41-49.51,129.41-49.51,0,0,96.16-176.8,182.2-176.69,11.15,.02,23.52,.61,35.4,2.32Z" style="fill:#253339; opacity:.18;"/><path d="M390.63,138.38c-5.32-4.38-11.09-11.86-6.8-17.26,1.26-1.59,3.21-2.57,4.27-4.29,2.76-4.53-2.23-10.22-1.37-15.45,.76-4.59,2.17-8.49,7.54-11.03,1.78-.85,5.37-.85,8.01,.59,7.47,4.07,7.55,16.33,15.78,18.5,5.28,1.4,9.91-3.97,15.28-4.96,5.15-.95,10.69,2.93,11.55,8.09,1.01,6.03-3.59,12.34-1.38,18.05,1.87,4.85,7.71,6.77,10.99,10.8,4.07,5,3.09,13.3-2.03,17.22-3.21,2.45-7.94,3.66-9.15,7.51-.46,1.47-.3,3.11-.98,4.49-.78,1.58-2.48,2.47-4.11,3.16-5.73,2.43-11.91,3.8-18.13,4-1.71,.06-3.5,0-5-.82-1.92-1.05-2.99-3.15-3.95-5.12-4.68-9.67-9.36-19.33-14.04-29" style="fill:#363636;"/><path d="M304.66,261.2s-104-3.22-145.08,5.11c-6.53,1.32-12.59,3.74-18.34,7.17-.1,.08-.23,.13-.34,.21-8.08,4.82-15.53,11.64-22.83,20.1-.1,.13-.23,.26-.34,.39-5.65,6.59-29.17,41.58-35.63,52.09-6.5,10.6-13.39,21.93-20.9,33.82l-9.6,15.71c-.13-.08-.26-.13-.39-.21-.46,.75-.95,1.47-1.44,2.22,0,0-5.34,9.06,16.95,18.65l41.67-37.36,70.82-63.44,136.82-7.3-11.38-47.16Z" style="fill:#f7bbb8;"/><path d="M192.31,314.96l-13.09,.7-52.93,47.42c-.52-16.35,.53-57.17,22.35-71.05l11.31-4.69-6.51-19.43c2-.65,4.03-1.18,6.13-1.61,4.82-.97,10.49-1.79,16.77-2.49l15.95,51.14Z" style="fill:#ee8c8d; opacity:.46;"/><path d="M113.6,374.46l-5.2,4.66-8.64,7.75-25.23-28.24c2.59-4.22,5.11-8.34,7.58-12.36,1.06-1.73,2.58-4.11,4.4-6.92l27.1,35.11Z" style="fill:#ee8c8d; opacity:.46;"/><path d="M266.81,261.32s-59.35-3.39-90.72,2.54l4.24,43.24,78,.85,8.48-46.63Z" style="fill:#eaa32f;"/><path d="M160.52,263.32s12.05,51.52,13.47,50.67c1.42-.85,15.66-3.13,15.66-3.13l-10.53-53.23-18.59,5.69Z" style="fill:#c0463b;"/><path d="M343.34,297.03s23.4,91.67-163.01,38.89l-33.91,122.93s2.69,7.9-19.5-1.7c1.18-5.9-12.54-135.33,26.41-161.3,38.95-25.97,146.94-13.58,146.94-13.58l43.08,14.75Z" style="fill:#f7bbb8;"/><path d="M200.27,341.21c-6.35-1.56-13.01-3.34-19.94-5.29l-3.08,11.2c-4.91-15.35-13.13-42.18-15.6-55.8,8.55-3.87,19.02-6.57,30.33-8.42l8.3,58.31Z" style="fill:#ee8c8d; opacity:.46;"/><path d="M161.08,405.71l-9.68,35.06-25.23-4.69c-.46-11.12-.88-25.63-.56-41.17,8.26,2.47,25.01,7.51,35.47,10.8Z" style="fill:#ee8c8d; opacity:.46;"/><path d="M259.18,285.06s-19.5-13.56-76.3-.85c0,0,12.72,35.61,5.93,54.26,0,0,57.65,17.8,94.95,14.41,37.3-3.39,52.56-10.17,56.8-28.83,4.24-18.65-81.39-39-81.39-39Z" style="fill:#f6b233;"/><path d="M331.19,312.43c-13.55,13.25-33.13,16.81-51.39,17.18-10.22,.21-20.47-.27-30.67-.95-10.31-.69-20.59-1.73-30.83-3.11-11.41-1.54-22.75-3.5-34.02-5.87-.96-.2-1.27,1.28-.31,1.48,20.41,4.3,41.1,7.23,61.9,8.77,10.39,.77,20.83,1.28,31.24,1.22,9.98-.06,20.04-.84,29.68-3.56,9.46-2.68,18.46-7.25,25.53-14.17,.7-.68-.45-1.68-1.14-1Z" style="fill:#eaa32f;"/><path d="M168.58,285.52l22.2-6.75s11.1,51.73,5.98,65.39l-17.08-2.56-11.1-56.08Z" style="fill:#f16954;"/><path d="M234.58,226.39c-6.62-1.27-11.31-1.82-11.31-1.82-4.22-.43-14.45-.78-14.63,1.2-.05,.51,.49,1.27,2.16,1.74,2.13,.6,4.73,1.01,7.79,1.85-6.53-1.72-17.45-1.8-17.62,1.08-.17,2.88,11.12,2.5,15.15,3.68-6.97-1.18-15.65-.6-16.55,1.02-.91,1.62,9.71,4.54,15.56,4.81-6.24-1.13-14.47-1.16-14.69,.66-.22,1.83,12.6,4.3,18.11,4.87-2.58,2.72-5.18,6.03-3.15,6.49,2.34,.53,10.63-4.35,14.75-6.63" style="fill:#f7bbb8;"/><path d="M377.31,182.03s-23.05-7.02-47.21,6.66c-21.16,11.98-31.39,33.4-52.08,31.55-11.48-1.02-39.2-.15-50.8,1.77,0,0,1.77,16.2-2.03,26.45,0,0,43.5,9.52,64.28,9.06,20.77-.46,41.16-24,48.45-35.29,7.29-11.29,39.39-40.2,39.39-40.2Z" style="fill:#c0463b;"/><path d="M426.51,174.71c.6-.97,.3-2.25-.68-2.85-.97-.6-2.25-.3-2.85,.68-.6,.97-.3,2.25,.68,2.85,.97,.6,2.25,.3,2.85-.68Z" style="fill:#fff;"/><path d="M436,144.93l.02,.02-.03,.04s0-.04,0-.06Z" style="fill:#edb99a;"/><path d="M396.68,125.71c3.08,1.26,29.04,6.75,34.95,23.25-2.73,4.24-15.21,17.63-14.83,17.45,.8-.37,1.01-.63,5.93,.93,.49,.13,.98,.3,1.45,.54,4,2.07,5.57,6.99,3.5,10.98-2.07,4-6.99,5.56-10.99,3.49-1.09-.56-1.98-1.35-2.69-2.26l-12.9,20.58c-.34,.74-.71,1.47-1.16,2.18-5.48,8.74-17,11.38-25.74,5.9-8.74-5.48-11.38-17-5.9-25.74,.42-.67,.88-1.28,1.36-1.88l5.51-8.79c-6.58-7.99-2.51-17.35,3.36-24.25,5.86-6.9,17.81-22.06,18.14-22.37Z" style="fill:#f7bbb8;"/><path d="M421.29,176.53c0-1.31-.45-2.62-1.23-3.67,0,0,.41-.2,1.37,.07,.96,.27,2.76,1.31,2.76,1.31-.89-1.36-2.6-2.32-4.2-2-1.92,.39-3.11,1.29-3.7,2.8,0,0,2.07-2.08,3.29-1.97l1.72,3.45Z" style="fill:#ee8c8d; opacity:.46;"/><path d="M398.56,160.47c1.82-2.96,5.7-3.88,8.66-2.06,2.96,1.82,3.88,5.7,2.06,8.66-1.82,2.96-5.7,3.88-8.66,2.06-2.96-1.82-3.88-5.7-2.06-8.66Z" style="fill:#ee8c8d; opacity:.46;"/><path d="M383.02,142.68c.38,.14,.75,.32,1.11,.54,2.96,1.82,3.88,5.7,2.06,8.66-1.82,2.96-5.7,3.88-8.66,2.06-.8-.5-1.44-1.15-1.93-1.89,.89-1.38,1.89-2.71,2.95-3.96,1.27-1.49,2.82-3.37,4.48-5.41Z" style="fill:#ee8c8d; opacity:.46;"/><g><path d="M394.46,132.92c1.77-2.31,5.77-.52,7.33,1.18,.85,.93,1.56,2.79,.73,3.93-.79,1.09-4.16-.68-5.19-1.25-.96-.53-2.31-.79-2.89-1.78-.39-.67-.47-1.43,.02-2.08h0Z" style="fill:#363636;"/><path d="M415.86,150.47c-1.15-.81-1.28-1.95-1.83-3.17-.51-1.14-2.13-4.64-.8-5.39,1.16-.65,2.94,.16,3.77,1.04,1.62,1.74,3.05,5.86,.55,7.47-.45,.29-1.23,.37-1.69,.04h0Z" style="fill:#363636;"/><path d="M403.25,141.38c-4.63,2.51-9.34,4.87-14.13,7.07-.17,.08-.25,.33-.2,.5,.76,2.32,1.73,4.56,2.92,6.7,.28,.5,1.04,.04,.76-.46-1.09-1.96-1.99-4.01-2.71-6.13,4.67-2.16,9.28-4.47,13.81-6.92,.5-.27,.05-1.03-.46-.76Z" style="fill:#363636;"/><path d="M387.65,160.73c1.02,2.19,3.56,3.32,5.85,2.47,.24-.09,.5-.04,.63,.21,.11,.2,.03,.54-.21,.63-2.76,1.01-5.86-.2-7.11-2.89-.25-.54,.58-.97,.83-.42Z" style="fill:#363636;"/><path d="M409.96,151.08c-.24-.36-.69-.41-1.05-.21-.85,.47-3.77,1.64-4.56-3.29-.06-.4-.54-.62-.96-.48-.36,.12-1.02,3.41,1.32,5.91,.68,.72,1.73,.8,2.66,.55,.9-.25,1.69-.83,2.39-1.43,.31-.26,.45-.69,.21-1.05Z" style="fill:#363636;"/><path d="M391.18,137.86c.39,.04,.61,.38,.61,.74-.01,.87,.3,3.66,4.52,2.21,.35-.12,.72,.17,.78,.56,.06,.33-2.26,2.25-5.21,1.45-.85-.23-1.36-1.03-1.55-1.87-.18-.81-.05-1.68,.12-2.48,.08-.36,.35-.65,.74-.61Z" style="fill:#363636;"/></g><path d="M375.18,172.33s11.59,13.56,34.37,8.79c0,0-22.43,19.14-39.43-.72l5.06-8.08Z" style="fill:#ee8c8d; opacity:.46;"/><path d="M401.32,199.99s-19.78,5.65-28.26-2.83c-8.51-8.51-3.39-16.04-3.39-16.04l-9.61,.78c-47.48,9.89-57.88,69.09-57.88,69.09l-48.94,7.77c27.44,20.37,10.11,56.52,34.05,77.99,26.9,24.13,49.76,5.12,49.76,5.12,0,0,30.27-46.81,52.03-77.22,21.77-30.41,24.36-35.99,24.36-35.99,.5-14.97-12.12-28.69-12.12-28.69Z" style="fill:#f16954;"/><path d="M352.09,276.16c-9.72-9.37-20.93-17.18-33.09-23.04-3.45-1.66-6.98-3.16-10.56-4.51-.91-.34-1.59,1.01-.68,1.36,12.57,4.72,24.38,11.42,34.84,19.84,2.94,2.37,5.77,4.87,8.49,7.49,.7,.68,1.7-.46,1-1.14Z" style="fill:#363636; opacity:.17;"/><path d="M312.42,281.03c-2.05-8.42-5.21-16.53-9.36-24.14-.47-.86-1.72,0-1.26,.85,4.09,7.49,7.16,15.49,9.19,23.77,.23,.95,1.67,.46,1.44-.48Z" style="fill:#363636; opacity:.17;"/><path d="M302.98,278.56c-2.09-3.6-4.18-7.21-6.27-10.81-.49-.84-1.75,0-1.26,.85,2.09,3.6,4.18,7.21,6.27,10.81,.49,.84,1.75,0,1.26-.85Z" style="fill:#363636; opacity:.17;"/><path d="M301.18,328.81c-4.14-2.98-6.53-7.58-8.53-12.15-2.06-4.71-3.91-9.52-5.76-14.32-3.64-9.44-7.26-18.95-12.18-27.82-2.77-4.99-5.97-9.74-9.74-14.03-.63-.72-1.9,.11-1.26,.85,13.78,15.74,19.15,36.43,27.26,55.24,2.15,4.99,4.68,10.11,9.21,13.37,.79,.56,1.79-.57,1-1.14Z" style="fill:#363636; opacity:.17;"/><path d="M343.6,263.3c-8.11-8.58-17.09-16.3-26.79-23.02-.79-.55-1.8,.58-1,1.14,9.7,6.73,18.68,14.45,26.79,23.02,.67,.71,1.67-.44,1-1.14Z" style="fill:#363636; opacity:.17;"/><path d="M397.76,207.52c-6.23,2.21-13.04,3.22-19.51,1.48-5.74-1.55-10.99-5.31-13.35-10.9-1.31-3.11-1.69-6.53-.87-9.81,.23-.95-1.25-1.26-1.48-.31-1.53,6.18,.85,12.75,5.4,17.07,4.81,4.57,11.6,6.52,18.13,6.34,4.16-.11,8.26-1.05,12.17-2.44,.92-.33,.44-1.77-.48-1.44Z" style="fill:#363636; opacity:.17;"/><path d="M326.39,329.37s3.46,41.49-32.27,46.1c0,0-11.53-9.22,1.15-12.68,12.68-3.46,19.59-10.37,20.75-31.12,1.15-20.75,9.22-12.68,10.37-2.31Z" style="fill:#363636;"/><path d="M224.76,305.31c0,14.08,20.96,25.5,91.37,25.5s82.87-11.42,82.87-25.5-12.46-25.5-82.87-25.5-91.37,11.42-91.37,25.5Z" style="fill:#363636;"/><path d="M259.18,282.51c0-7.96-6.45-14.41-14.41-14.41s-14.41,6.45-14.41,14.41,6.45,14.41,14.41,14.41,14.41-6.45,14.41-14.41Z" style="fill:#415c65;"/><path d="M269.32,299.67c-6.2-.75-9.9-1.58-9.9-1.58v-.14c-4.28,.53-8.48,.59-11.86,.26-.52-.05-1.66-.54-2.1-.85-.44-.31-.75-.89-.58-1.38,.16-.49,.7-.68,1.16-.89,2.13-1,3.41-1,8.97-2.49-6.63,1.28-10.76,1.37-13.94,1.08-1.55-.14-2.45-.58-2.76-1.21-.34-.7,.17-1.33,.77-1.76,1.78-1.27,3.95-1.58,6.11-2.06,4.1-.9,2.74-.66,6.84-1.55-4.31,.42-14.34,1.26-15.14-.42-.79-1.67,3.18-3.08,4.48-3.31,4.76-.83,5.3-1.33,10.06-2.16-6.3,.71-13.7,1.37-13.8-.47-.09-1.84,12.05-4.63,17.58-4.81-2.39-2.89-4.76-6.37-2.7-6.69,2.38-.37,13.41,8.62,17.37,11.18,.51-.01,3.97,3.05,4.51,3.03" style="fill:#f7bbb8;"/><path d="M267.8,299.56c69.24,6.91,84.15,16.62,140.42-40.08,0,0,19-33.69-5.09-40.43-17.9-5.01-52.47,49.44-65.22,53.84-12.75,4.4-37.07,6.7-52.78,6.44-5.78-.1-17.75-1.38-22.68-.91" style="fill:#f7bbb8;"/><path d="M271.51,281.81c-.54-.81-1.8,.03-1.26,.85,1.65,2.47,2.58,5.34,2.69,8.32,.04,.98,1.55,.89,1.51-.08-.12-3.23-1.15-6.39-2.95-9.08Z" style="fill:#ee8c8d; opacity:.46;"/><path d="M394.08,201.54c14.7-6.22,29.84,.82,32.68,19.37,3.73,24.35-36.93,58.88-56.93,70.9l-18.66-28.3s28.67-55.95,42.91-61.97Z" style="fill:#f16954;"/><path d="M377.98,218.78c-8.97,13.6-17.79,27.08-24.01,42.22-.41,1.01,1.23,1.45,1.63,.45,6.16-14.98,14.96-28.34,23.84-41.81,.6-.91-.87-1.76-1.46-.86h0Z" style="fill:#363636; opacity:.17;"/><polygon points="387.37 284.32 369.75 294.11 344.83 267.14 354.17 253.85 387.37 284.32" style="fill:#c0463b;"/><polygon points="337.91 272.9 348.67 284.04 339.45 287.11 331.77 274.82 337.91 272.9" style="fill:#fff;"/><polygon points="335.61 273.76 340.79 280.39 338.2 281.26 333.3 274.63 335.61 273.76" style="fill:#f16954;"/><path d="M395.4,121.45c-.9,6.2,4.08,12.64,10.3,13.32,2.13,.23,4.29-.12,6.41,.16s4.36,1.43,4.96,3.48c.43,1.49-.08,3.21,.65,4.59,1.31,2.47,5.27,1.81,7.29,3.75,1.71,1.64,1.33,4.6-.06,6.53-1.39,1.93-3.51,3.17-5.36,4.66-2.69,2.15-8.65,6.46-6.39,10.42,2.26,3.96,15.86-5.84,20.34-11.21,2.06-2.47,3.85-5.27,4.59-8.41,1.18-4.98-.46-10.36-3.62-14.38-3.16-4.02-7.69-6.79-12.48-8.6" style="fill:#363636;"/><path d="M294.72,242.53c-1.81-6.23-3.61-12.47-5.42-18.7-.27-.94-1.71-.45-1.44,.48,1.81,6.23,3.61,12.47,5.42,18.7,.27,.94,1.71,.45,1.44-.48Z" style="fill:#363636; opacity:.17;"/><path d="M299.6,231.58c-1.67-3.02-3.51-5.94-5.51-8.75-.56-.79-1.83,.05-1.26,.85,2,2.81,3.84,5.73,5.51,8.75,.2,.36,.73,.42,1.05,.21,.36-.24,.4-.69,.21-1.05Z" style="fill:#363636; opacity:.17;"/><path d="M234.63,225.46c-.26-.94-1.7-.46-1.44,.48,1.76,6.45,2.3,13.18,1.57,19.83-.11,.96,1.38,1.28,1.48,.31,.76-6.92,.22-13.9-1.62-20.62Z" style="fill:#363636; opacity:.17;"/><path d="M372.51,283.34c-5.54-5.94-11.43-11.54-17.65-16.77-.75-.63-1.75,.51-1,1.14,6.21,5.23,12.11,10.83,17.65,16.77,.66,.71,1.66-.43,1-1.14Z" style="fill:#363636; opacity:.17;"/><path d="M376.75,282.23c-2.49-3.08-5.21-5.98-8.13-8.66-.72-.66-1.72,.48-1,1.14,2.83,2.59,5.46,5.39,7.87,8.37,.26,.32,.69,.45,1.05,.21,.32-.21,.46-.73,.21-1.05Z" style="fill:#363636; opacity:.17;"/><g><g><path d="M89.12,459.88l64.29,6.33,6.38-54.26-35.58-7.83,1.29,40.14c-19.11-4.84-34.33,7.04-36.39,15.62Z" style="fill:#c0463b;"/><polygon points="124.22 404.12 138.61 418.21 144.3 454.93 115.28 462.46 153.41 466.21 159.8 411.95 124.22 404.12" style="fill:#363636; opacity:.21;"/></g><path d="M112.43,455.93c.3-.01,.37-1.9-.6-3.94-.96-2.05-2.45-3.2-2.65-2.98-.23,.22,.78,1.59,1.64,3.46,.88,1.85,1.29,3.51,1.61,3.47Z" style="fill:#fff;"/><path d="M119.69,455.42c.29-.02,.3-1.93-.85-3.91-1.15-1.98-2.82-2.92-2.98-2.67-.2,.25,1,1.46,2.01,3.23,1.04,1.75,1.5,3.39,1.82,3.34Z" style="fill:#fff;"/><path d="M125.48,448.62c.23-.18-1.3-2.01-4.02-2.71-2.72-.73-4.94,.1-4.83,.37,.07,.32,2.14,.05,4.55,.71,2.42,.62,4.09,1.88,4.3,1.63Z" style="fill:#fff;"/><path d="M138.81,461.8c-18.04-1.96-47.86-5.42-47.9-5.12-.03,.31,29.74,4.27,47.78,6.23,18.03,1.95,18.15,.84,.12-1.11Z" style="fill:#fff;"/><path d="M152.51,449.42c.03-.11-1.5-.61-4.09-.66-2.57-.06-6.18,.5-9.76,2.2-3.57,1.71-6.28,4.17-7.85,6.2-1.58,2.04-2.16,3.54-2.06,3.59,.16,.1,.98-1.25,2.66-3.08,1.67-1.84,4.32-4.07,7.73-5.71,3.42-1.62,6.82-2.28,9.3-2.42,2.48-.15,4.04,.06,4.07-.13Z" style="fill:#fff;"/><path d="M146.9,449.29c.31-.07,.3-13.06,.03-15.76-.27-2.71-.54-15.65-.85-15.65-.3,0-.54,12.98-.26,15.76,.27,2.78,.78,15.72,1.08,15.65Z" style="fill:#fff;"/><path d="M105.82,458.27c.14,.03,.45-.55,.55-1.6,.1-1.04-.1-2.55-.93-3.97-.83-1.42-2.06-2.33-3.01-2.74-.96-.43-1.63-.44-1.66-.3-.12,.29,2.28,1.14,3.71,3.61,1.46,2.46,1.03,4.96,1.35,5Z" style="fill:#fff;"/></g><g><g><path d="M16.49,376.95l47.74,43.53,35.52-33.61-23.27-34.41-21.49,33.73c-12.42-15.31-31.73-14.89-38.51-9.24Z" style="fill:#c0463b;"/><polygon points="76.48 352.45 86.23 381.25 68.3 405.97 35.98 394.71 64.23 420.47 99.75 386.86 76.48 352.45" style="fill:#363636; opacity:.21;"/></g><path d="M37.54,387.73c.25,.17,1.43-1.3,1.88-3.52,.46-2.22-.05-4.03-.34-3.97-.32,.04-.33,1.74-.75,3.75-.4,2.01-1.06,3.58-.79,3.74Z" style="fill:#fff;"/><path d="M43.66,391.66c.25,.16,1.4-1.37,1.65-3.64,.27-2.27-.51-4.02-.79-3.92-.31,.08-.08,1.77-.32,3.79-.22,2.03-.83,3.62-.54,3.77Z" style="fill:#fff;"/><path d="M52.37,389.67c.29-.01,.16-2.38-1.6-4.58-1.74-2.21-4.02-2.88-4.1-2.59-.14,.3,1.69,1.32,3.22,3.29,1.57,1.94,2.15,3.95,2.47,3.88Z" style="fill:#fff;"/><path d="M55.17,408.2c-13.29-12.35-35.12-32.97-35.33-32.75-.21,.23,21.28,21.21,34.56,33.56,13.28,12.35,14.04,11.53,.76-.82Z" style="fill:#fff;"/><path d="M73.55,406.48c.09-.08-.84-1.39-2.88-2.97-2.02-1.58-5.25-3.29-9.13-4.07-3.89-.76-7.53-.41-10,.28-2.49,.69-3.85,1.54-3.8,1.65,.07,.17,1.53-.41,3.97-.88,2.43-.47,5.9-.68,9.61,.05,3.71,.75,6.83,2.26,8.9,3.62,2.08,1.36,3.2,2.46,3.34,2.33Z" style="fill:#fff;"/><path d="M69.13,403.01c.29,.13,8.05-10.29,9.45-12.61,1.4-2.33,8.93-12.86,8.68-13.05-.24-.19-8.2,10.08-9.63,12.48-1.44,2.39-8.77,13.07-8.5,13.19Z" style="fill:#fff;"/><path d="M30.84,385.65c.09,.11,.69-.17,1.39-.95,.7-.77,1.45-2.11,1.63-3.74,.18-1.63-.26-3.1-.77-4-.52-.92-1.04-1.32-1.15-1.23-.27,.16,1.14,2.27,.82,5.11-.3,2.84-2.14,4.6-1.91,4.81Z" style="fill:#fff;"/></g></g><path d="M336.95,277.76c-10.78,9.69-24.45,16-38.84,17.9-11.28,1.49-22.99,.29-34.32-.86-16.74-1.7-32.57-3.32-47.39,2.85-4.76,1.99-9.25,4.76-13.59,7.45-2.08,1.29-4.22,2.61-6.37,3.84-16.58,9.46-36.88,14.98-60.39,16.41-2.65,.15-5.5,.27-8.46,.27-8.66,0-18.33-1.03-27.1-5.1-10.51-4.9-29-18.82-34.59-57.13-5.55-38,2.18-75.99,9.65-112.72l1.49,.3c-7.45,36.61-15.13,74.46-9.63,112.21,1.8,12.36,5.41,23.73,10.43,32.91,5.96,10.87,13.8,18.64,23.29,23.05,11.45,5.32,24.63,5.29,34.83,4.69,23.26-1.41,43.36-6.87,59.72-16.21,2.14-1.21,4.26-2.53,6.32-3.81,4.4-2.71,8.93-5.52,13.8-7.55,15.18-6.32,31.94-4.61,48.13-2.97,11.24,1.15,22.85,2.34,33.97,.88,14.15-1.87,27.57-8.07,38.14-17.62l.89,1.23Z" style="fill:#f16954;"/><path d="M82.36,145.61c-.49,4.53-2.59,11.66-6.63,11.66s-6.22-7.37-6.66-12l13.29,.34Z" style="fill:#e1e1e1;"/></svg>