<?xml version="1.0" encoding="UTF-8"?><svg id="OBJECTS" xmlns="http://www.w3.org/2000/svg" viewBox="0 0 457.92 415.09"><path d="M101.17,239.96h0c9.28-10.85,20.24-18.25,32.36-21.93,12.19-3.83,25.27-3.45,38.63,.88,0,0-3.82-2.4-9.56-6.01-5.68-3.7-13.46-8.29-21.31-12.75-7.82-4.52-15.64-9.03-21.51-12.42-2.91-1.74-5.42-3.03-7.17-3.93-1.75-.91-2.75-1.43-2.75-1.43-9.66,11.27-21.06,19.03-33.28,23.11-6.12,2.04-12.45,3.15-18.92,3.31-6.53,.37-13.23-.04-19.99-1.51h0c8.29-11.64,18.55-20.02,30.36-24.8,11.68-4.5,24.72-5.05,38.44-1.87,0,0-8.92-4.65-17.85-9.3-4.48-2.29-8.89-4.73-12.31-6.32-3.43-1.57-5.72-2.62-5.72-2.62-14.62,1.99-27.7-.15-39.49-5.24-11.9-4.76-22.27-13.21-31.08-25.31H0c14.14-3.23,28.14-2.26,40.63,2.41,12.34,4.99,22.82,14.34,30.75,26.43,0,0,1.14,.52,3.15,1.44,2.01,.9,4.87,2.21,8.19,4.01,6.69,3.49,15.62,8.14,24.55,12.79,9.01,4.49,17.67,9.64,24.2,13.42,6.54,3.77,10.89,6.29,10.89,6.29-10.08-9.75-16.61-21.5-20.12-33.73-3.49-12.25-3.56-25.69,.2-39.56h0c6.16,4.89,11.34,10.25,15.49,15.95,4.11,5.74,6.98,12.1,8.93,18.52,3.84,12.92,3.47,26.73-1.17,40.75,0,0,3.91,2.27,9.78,5.68,5.75,3.61,13.41,8.42,21.07,13.23,15.45,9.42,30.31,19.75,30.31,19.75-4.68-5.26-8.48-10.88-11.42-16.76-3.04-5.75-5.21-11.79-6.49-18.06-2.55-12.53-1.58-25.95,3.23-39.51h0c11.29,10.67,18.76,22.75,21.71,35.81,2.92,13.14,1.65,26.92-3.85,40.67,0,0,3.75,2.53,9.38,6.32,5.68,3.71,13.01,9.01,20.36,14.28,7.35,5.27,14.71,10.53,20.22,14.48,5.42,4.08,9.03,6.8,9.03,6.8-17.58-21.88-21.73-48.28-10.51-74.93h0c10.57,11.23,17.13,23.81,19.47,36.88,2.31,13.12,.25,26.93-5.9,40.36,0,0,3.61,2.72,9.03,6.8,5.45,4.04,12.63,9.54,19.69,15.19,7.1,5.61,14.2,11.21,19.52,15.41,5.24,4.3,8.74,7.17,8.74,7.17-16.64-22.6-19.45-49.26-7.05-75.23h0c20.14,23.22,23.61,51.28,10.01,77.66,0,0,5.93,4.88,14.83,12.21,8.76,7.49,20.57,17.32,32.06,27.53,11.59,10.09,22.95,20.44,31.4,28.28,8.47,7.82,13.98,13.19,13.98,13.19l-1.32,1.35s-15.63-15.05-31.85-29.48c-8.04-7.29-16.29-14.35-22.38-19.75-6.19-5.29-10.31-8.81-10.31-8.81-11.78,8.97-24.57,14.03-37.52,15.2-13.08,1.3-26.29-1.36-39.14-7.9h0c21.84-18.4,48.45-22.13,73.74-9.78,0,0-13.73-11.75-27.78-23.12-6.95-5.78-14.02-11.4-19.36-15.57-5.32-4.19-8.87-6.99-8.87-6.99-22.75,18.76-50.13,22.53-76.2,10.63h0c21.02-19.43,47.32-24.17,73.2-13,0,0-3.56-2.78-8.9-6.95-5.41-4.08-12.63-9.52-19.84-14.95-7.17-5.5-14.51-10.77-20.04-14.69-5.51-3.94-9.18-6.57-9.18-6.57-10.95,9.99-23.15,16.04-35.96,18.47-12.87,2.51-26.23,1.23-39.46-4.1h0c9.98-10.2,21.41-16.83,33.72-19.69,12.27-2.81,25.6-2.11,38.6,3.09,0,0-3.67-2.63-9.18-6.57-5.61-3.79-13.1-8.85-20.58-13.91-14.85-10.3-30.27-19.72-30.27-19.72-10.39,10.56-22.29,17.42-34.83,20.48-12.51,2.94-26.01,2.95-39.4-1.46Z" style="fill:#eae8e8;"/><path d="M217.62,137.04h0c12.53-6.84,25.4-9.87,38.04-9,12.75,.75,24.85,5.75,35.79,14.54,0,0-2.72-3.6-6.8-9.01-3.99-5.48-9.63-12.53-15.39-19.49-5.71-7-11.41-14-15.69-19.25-2.1-2.66-3.99-4.76-5.31-6.23-1.31-1.48-2.06-2.32-2.06-2.32-13.04,7.11-26.44,10.3-39.32,9.78-6.44-.27-12.76-1.48-18.86-3.63-6.23-1.98-12.35-4.73-18.15-8.52h0c11.89-7.94,24.46-12.13,37.19-12.39,12.52-.06,24.9,4.06,36.6,11.91,0,0-6.69-7.52-13.38-15.03-3.37-3.73-6.63-7.58-9.26-10.28-2.65-2.69-4.41-4.48-4.41-4.48-14.37-3.34-25.85-9.98-35.05-18.93-9.43-8.68-16.13-20.26-20.06-34.7h0c14.36,2,27.1,7.89,37.12,16.69,9.76,9.05,16.24,21.51,19.35,35.64,0,0,.88,.9,2.43,2.46,1.56,1.55,3.77,3.79,6.23,6.66,5.02,5.64,11.71,13.16,18.4,20.68,6.83,7.4,13.09,15.29,17.86,21.14,4.77,5.85,7.95,9.75,7.95,9.75-5.96-12.7-7.88-26-6.82-38.68,1.09-12.69,5.8-25.28,14.24-36.91h0c4.02,6.76,6.96,13.61,8.81,20.41,1.8,6.83,2.23,13.79,1.77,20.48-1,13.44-6.25,26.21-15.58,37.67,0,0,2.85,3.51,7.13,8.78,4.09,5.42,9.54,12.64,14.99,19.86,11.1,14.3,21.32,29.23,21.32,29.23-2.5-6.58-4.06-13.18-4.72-19.73-.8-6.45-.68-12.87,.35-19.18,2.06-12.62,7.75-24.82,17.05-35.79h0c6.77,13.99,9.45,27.93,7.57,41.19-1.94,13.32-8.03,25.75-18.05,36.64,0,0,2.61,3.7,6.52,9.24,3.99,5.49,8.96,13.05,13.96,20.58,5,7.54,10.01,15.07,13.76,20.72,3.61,5.74,6.02,9.57,6.02,9.57-8.66-26.7-3.15-52.85,16.8-73.77h0c5.89,14.25,7.56,28.34,5.1,41.39-2.5,13.09-9.34,25.26-19.86,35.63,0,0,2.41,3.83,6.02,9.57,3.66,5.72,8.42,13.4,13.01,21.2,4.64,7.76,9.29,15.52,12.77,21.34,3.37,5.89,5.62,9.81,5.62,9.81-7.53-27.04-.67-52.96,20.14-72.82h0c10.58,28.86,3.85,56.32-18.24,76.15,0,0,3.81,6.67,9.52,16.68,5.52,10.12,13.08,23.5,20.18,37.13,7.25,13.55,14.19,27.26,19.31,37.59,5.14,10.32,8.38,17.3,8.38,17.3l-1.71,.79s-9.26-19.62-19.3-38.87c-4.92-9.67-10.12-19.2-13.9-26.41-3.91-7.14-6.51-11.9-6.51-11.9-14.2,4.2-27.95,4.39-40.47,.87-12.69-3.43-24.09-10.62-33.78-21.29h0c26.95-9.44,53.15-3.47,72.41,17.06,0,0-8.66-15.86-17.75-31.48-4.44-7.87-9.05-15.64-12.57-21.43-3.48-5.81-5.81-9.69-5.81-9.69-27.93,9.46-54.86,3.25-75.01-17.14h0c26.56-10.7,52.82-5.78,73.04,13.86,0,0-2.34-3.86-5.85-9.66-3.61-5.73-8.42-13.38-13.23-21.03-4.74-7.69-9.74-15.22-13.51-20.85-3.75-5.64-6.25-9.41-6.25-9.41-13.79,5.45-27.34,6.77-40.18,4.49-12.92-2.23-24.96-8.18-35.43-17.85h0c12.96-5.99,25.99-8.13,38.51-6.42,12.47,1.73,24.67,7.13,34.98,16.6,0,0-2.5-3.76-6.25-9.41-3.9-5.54-9.1-12.93-14.3-20.32-10.22-14.9-21.29-29.19-21.29-29.19-13.46,6.18-27.02,8.36-39.83,6.77-12.74-1.69-25.36-6.49-36.31-15.37Z" style="fill:#b3bbbc;"/></svg>